# xmcd CD database file
#
# Track frame offsets:
#	163
#	30438
#	59166
#	75409
#	113118
#	141960
#	163675
#	187371
#	230773
#
# Disc length: 3451 seconds
#
# Revision: 0
# Processed by: cddbd v1.5.1PL0 Copyright (c) Steve Scherf et al.
# Submitted via: CDex 1.51
#
DISCID=7e0d7909
DTITLE=Frank Tiberi - Tiberian Mode
DYEAR=1999
DGENRE=Jazz
TTITLE0=Spets Esrever
TTITLE1=Stella By Starlight
TTITLE2=I Have Loved
TTITLE3=Retrospect
TTITLE4=The Garz And I
TTITLE5=The Champ
TTITLE6=Confusion
TTITLE7=Body And Soul
TTITLE8=Cherry Key
EXTD=YEAR: 1999
EXTT0=
EXTT1=
EXTT2=
EXTT3=
EXTT4=
EXTT5=
EXTT6=
EXTT7=
EXTT8=
PLAYORDER=
